<svg width="150" height="165" viewBox="0 0 150 165" fill="none" xmlns="http://www.w3.org/2000/svg">
<path d="M18.1975 163.797C17.9899 163.644 18.215 163.443 18.5236 163.296C18.6193 163.25 19.0428 163.282 19.128 163.251C19.294 163.19 19.0874 163.126 19.2852 163.067C19.3529 163.048 20.0238 163.09 20.0793 163.069C20.3789 162.959 20.211 162.843 20.3577 162.728C20.9145 162.293 21.2116 161.864 21.4827 161.426C21.564 161.295 21.6431 161.163 21.7261 161.031C21.8443 160.839 22.4749 160.668 22.2339 160.435C22.2052 160.407 21.618 160.352 21.5703 160.342C20.8403 160.181 22.0193 160.346 22.1819 160.319C22.8241 160.21 22.9041 160.023 22.7051 159.813C22.6188 159.723 21.4492 159.627 22.1109 159.646C22.1556 159.648 22.7718 159.76 22.841 159.75C22.9964 159.726 22.8995 159.621 22.9543 159.593C23.063 159.539 23.0586 159.527 23.0765 159.462C23.1066 159.374 23.4314 159.323 23.3091 159.203C23.2813 159.177 22.6448 159.089 22.5436 159.036C22.4425 158.982 22.513 158.901 22.6675 158.9C22.8219 158.898 23.3148 159.007 23.4293 159.023C23.9145 159.095 23.8261 159.043 23.6146 158.968C23.4047 158.894 23.0737 158.798 23.0587 158.788C22.5497 158.431 23.3494 158.382 23.3998 158.163C23.4373 157.993 23.2385 157.746 23.3178 157.589C23.4149 157.403 23.7965 157.338 23.7977 157.134C23.7986 157.112 23.0711 156.91 23.0712 156.882C23.072 156.587 23.2464 156.333 23.8219 156.25C23.8801 156.243 24.4877 156.509 24.5826 156.517C24.7226 156.527 24.908 156.55 25.0673 156.562C25.5537 156.597 25.793 156.554 23.8236 155.635C23.9733 155.57 24.1397 155.481 24.7114 155.629C25.0789 155.725 25.7093 156.082 25.4611 155.884C25.4061 155.84 24.8228 155.595 24.7842 155.547C24.6232 155.344 24.8629 155.32 24.6223 155.071C24.5722 155.019 24.0628 154.771 23.9748 154.719C23.2649 154.292 24.5287 154.82 24.6247 154.851C25.3533 155.053 25.146 154.824 25.2335 154.705C25.254 154.678 24.571 154.34 24.5676 154.299C24.5596 154.091 24.7139 153.959 25.0913 153.992C25.1766 154 25.7083 154.373 25.7769 154.395C26.0701 154.492 25.0456 153.822 25.3106 153.899C25.3649 153.915 25.8261 154.224 25.8789 154.254C26.7044 154.739 25.5885 153.969 25.5711 153.941C25.3473 153.637 26.2396 154.132 26.4178 154.132C26.4455 154.131 26.4567 154.119 26.4451 154.089C26.4339 154.061 25.8386 153.687 25.8429 153.631C25.8681 153.26 26.2446 153.09 26.8674 153.225C26.9634 153.245 27.3432 153.613 27.3949 153.652C28.1955 154.279 27.1804 153.372 27.1529 153.325C26.9574 152.988 27.8722 153.678 26.733 152.522C27.4642 152.529 27.2896 151.546 28.4865 152.207C28.5234 152.229 28.5616 152.252 28.6011 152.278C28.6163 152.287 29.0309 152.814 29.059 152.83C29.4 153.039 28.7246 152.246 28.0253 151.175C27.8533 150.903 28.8538 152.075 28.9246 152.163C29.1943 152.479 29.7785 153.288 29.8333 153.347C30.2572 153.819 28.2665 151.19 28.3488 151.127C28.3544 151.13 28.7048 151.626 28.7469 151.67C28.8783 151.808 28.7549 151.6 28.8968 151.755C29.226 152.113 30.1686 153.409 29.6859 152.608C29.6243 152.504 28.5315 150.985 28.655 151.006C28.7042 151.017 28.813 150.904 28.9173 150.98C29.0206 151.057 29.3283 151.576 29.3457 151.596C29.8723 152.204 30.0195 152.503 30.6979 153.469C31.3657 154.437 29.8454 152.081 29.696 151.805C29.548 151.529 29.9642 152.044 30.0976 152.231C30.2324 152.416 30.415 152.754 30.4954 152.856C31.0148 153.529 29.8103 151.643 29.6125 151.242C29.1579 150.285 30.2778 152.039 30.4321 152.185C30.4762 152.223 30.2295 151.819 30.2236 151.771C30.2066 151.586 30.5532 152.135 30.3427 151.571C30.3061 151.481 29.7878 150.339 30.2535 151.131C30.3199 151.245 30.544 151.713 30.6239 151.802C30.7439 151.935 30.8638 152 30.8267 151.824C30.8002 151.694 30.3838 150.948 30.5421 151.165C30.6122 151.262 30.802 151.726 30.9142 151.872C31.0257 152.018 31.0954 151.958 31.1187 151.928C31.1416 151.897 30.8452 151.321 30.8287 151.28C30.736 151.047 30.6648 150.735 30.6709 150.733C30.7038 150.706 30.745 150.697 30.7918 150.703C31.0815 150.746 31.62 151.358 31.7182 150.973C31.7281 150.939 31.4418 150.319 31.4405 150.307C31.3991 150.013 32.0652 151.703 32.3533 152.241C31.7971 150.972 31.9247 151.19 31.9138 151.029C31.9082 150.951 31.6844 150.463 31.6649 150.411C31.3814 149.646 31.8199 150.604 31.9099 150.799C32.2423 151.519 31.9035 150.646 32.1252 151.127C32.3443 151.605 32.6121 152.338 32.6526 152.31C32.4737 151.847 31.9369 150.666 31.8918 150.457C31.7632 149.852 32.12 150.194 32.3548 150.417C32.4276 150.485 32.4904 150.541 32.5252 150.554C32.6744 150.609 32.678 150.51 32.8073 150.652C33.0393 150.911 32.6553 150.028 32.5775 149.587C32.5016 149.145 33.2864 151.379 33.4741 151.852C33.6603 152.325 33.4892 151.83 33.598 152.088C33.7063 152.346 33.8008 152.68 33.8642 152.769C33.9265 152.857 33.6915 151.98 33.5226 151.475C33.1629 150.407 32.7243 149.307 32.9485 149.669C32.9615 149.69 33.1554 150.282 33.1944 150.335C33.4968 150.736 33.6498 150.714 33.9216 151.071C33.959 151.121 34.1591 151.784 34.1829 151.821C34.4292 152.206 34.0265 151.11 33.6958 149.854C34.2064 151.493 34.5619 152.486 34.6445 152.481C34.645 152.481 34.6454 152.481 34.6458 152.481C34.6954 152.473 34.463 151.756 34.3396 151.238C34.3029 151.082 34.4904 151.565 34.3936 151.224C34.0793 150.109 33.6652 148.879 33.9142 149.343C33.9255 149.365 34.0937 149.977 34.1192 150.01C34.2835 150.223 33.9534 149.057 34.0231 148.884C34.0789 148.748 34.4269 149.419 34.5493 149.512C35.0424 151.388 35.0038 150.939 34.7119 149.633C34.7859 149.671 34.8344 149.581 34.9366 149.747C34.9715 149.803 35.089 150.353 35.1057 150.411C35.3627 151.329 35.0871 150.056 35.0897 150.003C35.1235 149.486 35.444 150.426 35.3858 149.454C35.3853 149.445 35.3687 149.356 35.3478 149.241C35.2849 148.899 35.186 148.336 35.3591 149.053C35.374 149.119 35.4483 149.73 35.5222 149.764C35.5995 149.797 35.8447 150.486 35.8247 149.856C35.8183 149.704 35.6991 148.615 35.8838 149.451C35.9083 149.565 35.9633 149.947 36.0059 150.158C36.1392 150.831 35.9433 149.483 36.1517 150.622C36.3609 151.76 36.5305 152.611 36.4941 151.81C36.4928 151.787 36.3675 150.714 36.3972 150.728C36.4435 150.75 36.5297 150.966 36.5711 150.954C36.5912 150.948 36.5027 150.284 36.5048 150.271C36.6158 149.881 36.7873 150.465 36.954 150.714C36.9813 150.761 37.0175 149.843 37.11 150.562C37.1338 150.756 37.1559 151.102 37.177 151.502C37.2416 152.724 37.3036 154.447 37.3398 153.855C37.342 153.541 37.3653 149.363 37.4738 151.527C37.6673 150.992 37.7629 152.105 37.9836 151.357C37.9928 151.324 38.1345 150.166 38.1576 150.185C38.1892 150.214 38.1459 150.757 38.1625 150.795C38.2288 150.968 38.3771 150.519 38.4593 150.606C38.4892 150.638 38.3816 151.191 38.4117 151.228C38.4391 151.265 38.6077 150.542 38.5913 150.904C38.5889 150.946 38.5804 151.017 38.5674 151.108C38.4983 151.607 38.2811 152.695 38.2687 152.846C38.614 151.391 38.6363 151.427 38.7963 151.061C38.8279 150.99 38.9469 150.483 38.9691 150.424C39.0653 150.172 38.9767 150.595 39.0797 150.32C39.1048 150.255 39.2436 149.763 39.2729 149.682C39.5335 148.974 39.2928 150.101 39.2389 150.294C39.0554 151.033 39.2776 150.407 39.2189 150.703C39.1542 150.996 38.9894 151.335 38.9637 151.518C38.905 151.895 39.0013 151.843 39.0525 151.89C39.0731 151.906 39.3234 151.272 39.3323 151.259C39.4667 151.128 39.2092 151.808 39.8283 150.599C38.3411 153.78 40.011 150.308 39.8022 150.991C39.7852 151.046 39.0126 152.516 38.8869 152.725C38.7638 152.936 38.9739 152.46 38.787 152.792C38.7379 152.867 38.0627 154.269 38.0289 154.358C37.7301 155.031 38.7266 152.759 38.7769 152.632C39.3372 151.272 38.635 152.795 38.595 152.904C38.3671 153.384 38.4644 153.049 38.3129 153.397C38.2161 153.623 37.7127 155.168 37.731 155.122C37.8058 154.972 38.369 152.775 37.8462 154.671C37.7384 155.076 37.3185 156.802 37.6525 155.446C37.6788 155.361 37.9465 154.112 37.7682 154.9C37.7627 154.926 37.7516 154.978 37.738 155.042C37.6985 155.228 37.6377 155.517 37.6312 155.549C37.5758 155.825 37.6567 155.42 37.6182 155.614C37.5804 155.808 37.5359 156.099 37.5647 155.926C37.5839 155.823 37.7198 154.868 37.747 154.633C37.8262 153.957 37.6702 155.062 37.7648 154.243C37.8494 153.42 38.0348 152.175 38.0454 151.638C37.8915 152.974 37.7343 154.346 37.5845 155.69C37.579 155.642 37.5795 155.205 37.5325 155.263C37.5274 155.271 37.5039 155.994 37.4994 156.022C37.485 156.136 37.4785 155.621 37.4537 155.826C37.4347 155.987 37.4299 156.753 37.4274 156.946C37.3993 156.013 37.3765 155.839 37.3597 155.815C37.3487 155.799 37.3402 155.847 37.3274 155.792C37.3161 155.744 37.2932 155.334 37.2775 155.2C37.2162 154.707 37.3174 156.064 37.3251 156.278C37.3692 157.19 37.1389 154.12 37.0832 154.201C37.0775 154.205 37.1977 155.842 37.2076 155.943C37.2522 156.608 37.1484 155.375 37.1208 155.256C37.0703 155.039 36.9999 154.652 37.0191 155.134C37.023 155.277 37.1315 156.294 37.01 155.512C36.9938 155.41 36.9237 154.872 36.9172 154.841C36.7998 154.322 37.0333 156.011 37.0999 156.584C37.1688 157.157 36.9639 155.998 36.9005 155.665C36.7426 154.802 36.8574 155.292 36.8448 155.207C36.7015 154.193 36.6976 154.372 36.6591 154.291C36.3887 152.641 36.3606 152.748 36.6199 154.213C36.6479 154.373 36.6418 154.216 36.6591 154.291C36.898 155.913 36.9186 156.122 36.6122 154.62C36.4669 153.917 36.3388 153.089 36.3248 153.403C36.319 153.545 36.5434 154.673 36.5794 154.986C36.614 155.282 36.5897 155.275 36.5451 155.18C36.4829 155.045 36.3776 154.733 36.365 154.837C36.3577 154.902 36.5106 155.513 36.5111 155.578C36.5148 155.752 36.3807 155.298 36.3992 155.542C36.4013 155.565 36.5571 156.206 36.549 156.216C36.4926 156.308 36.323 155.915 36.2318 155.927C36.1876 155.933 36.2089 156.304 36.1467 156.245C36.0423 156.147 35.6679 155.258 35.6618 155.503C35.6591 155.66 35.865 156.287 35.9806 156.721C35.9948 156.775 36.0061 156.819 36.0147 156.855C36.1442 157.381 35.6693 156.081 35.5888 155.869C35.5858 155.862 35.5784 155.701 35.4532 155.386C35.2239 154.719 35.588 155.867 35.5888 155.869C35.5352 155.723 35.4075 155.607 35.4307 155.732C35.4437 155.801 35.646 156.392 35.6493 156.416C35.7235 156.981 35.6828 157.163 35.4799 156.926C35.4737 156.914 35.2393 156.256 35.2276 156.238C35.0578 155.969 35.3093 156.787 35.4389 157.281C35.5678 157.774 35.4735 157.628 35.0123 156.52C35.0273 156.676 34.7788 156.204 34.6264 155.918C34.4737 155.632 34.9692 156.899 34.9765 156.925C35 157.011 35.0176 157.081 35.0301 157.137C35.1397 157.621 34.8557 157.049 34.7279 156.984C34.6599 156.947 34.649 157.165 34.6585 157.323C34.6678 157.449 34.5192 157.166 34.5651 157.368C34.5712 157.395 34.816 157.949 34.8238 157.971C35.0753 158.652 34.5043 157.286 34.3912 157.047C33.9794 156.177 33.7528 155.717 33.8836 156.154C33.9123 156.254 34.7445 158.217 34.7784 158.339C34.819 158.494 34.5156 157.792 34.5644 157.973C34.5683 157.988 34.7622 158.418 34.7374 158.406C34.6256 158.357 34.4182 158.15 34.343 158.237C34.3322 158.247 34.6636 158.918 34.6533 158.944C34.6495 158.953 34.6452 158.962 34.6406 158.97C34.6052 159.057 34.5309 159.039 34.3473 158.772C34.297 158.699 34.0734 158.225 34.0024 158.087C33.5689 157.252 34.1524 158.489 34.1629 158.513C34.394 159.136 33.7813 158.065 34.0418 158.596C34.0522 158.63 34.8038 159.889 34.1571 158.811C34.1161 158.739 33.4399 157.645 33.8962 158.397C33.9255 158.443 34.274 159.006 34.2376 158.949C34.1989 158.894 34.4396 159.265 34.0372 158.66C33.9128 158.467 33.1923 157.406 33.747 158.265C33.7802 158.329 35.0751 160.244 34.1675 158.932C34.0178 158.717 33.0555 157.33 33.5328 158.052C33.6265 158.191 33.8477 158.496 33.9769 158.693C34.1789 158.993 33.9007 158.637 34.3375 159.249C34.4131 159.358 35.0968 160.278 34.573 159.584C34.4903 159.475 34.1525 159.024 34.1117 158.976C33.9132 158.747 34.1317 159.055 33.8742 158.762C33.7824 158.66 33.2115 157.95 33.0478 157.768C33.0379 157.757 33.0279 157.746 33.018 157.736C32.8653 157.569 32.7262 157.446 32.9692 157.752C33.2298 158.077 34.1763 159.178 34.2459 159.272C34.5605 159.666 33.9744 159.048 33.8487 158.997C33.8314 158.988 34.2042 159.35 34.2072 159.361C34.2123 159.412 34.5749 159.736 33.7102 159.05C33.0076 158.512 32.5187 158.047 32.2185 157.846C32.0701 157.756 33.3749 158.827 33.4167 158.86C33.8258 159.213 33.2245 158.768 33.3907 158.929C33.426 158.961 33.9784 159.365 34.0031 159.387C34.0935 159.464 33.84 159.294 33.8789 159.335C33.8978 159.355 34.3259 159.654 34.2912 159.633C34.2912 159.633 34.2912 159.633 34.2912 159.633C34.2128 159.588 34.0285 159.468 33.6151 159.205C33.577 159.182 33.0433 158.811 33.0161 158.808C32.9749 158.803 32.5514 158.567 32.9582 158.858C33.0804 158.945 34.0932 159.578 33.3868 159.152C33.2394 159.063 32.0208 158.307 33.0657 158.973C33.2362 159.089 34.6603 159.964 33.7294 159.422C33.4843 159.279 32.4654 158.697 32.6189 158.8C32.6438 158.816 33.2014 159.133 33.2521 159.17C33.4217 159.295 33.3499 159.283 33.5149 159.4C33.5605 159.432 34.1482 159.74 34.1983 159.775C34.3376 159.87 34.1784 159.81 33.9822 159.738C33.9088 159.711 33.4188 159.461 33.3651 159.435C32.4868 159.015 33.6613 159.604 33.7293 159.639C34.133 159.858 33.5691 159.607 33.707 159.698C33.7438 159.721 34.3146 159.979 34.3649 160.004C34.857 160.24 33.8375 159.764 33.7215 159.72C33.3924 159.595 33.4256 159.645 33.4893 159.699C33.5135 159.72 34.1851 159.996 34.1996 160.01C34.2763 160.076 34.2474 160.096 34.0511 160.058C33.9925 160.047 33.9191 160.03 33.8291 160.008C33.754 159.99 33.2328 159.787 33.1126 159.744C32.2699 159.446 33.4031 159.896 33.5113 159.938C34.0018 160.14 33.5342 159.979 33.6141 160.03C34.0162 160.271 33.67 160.28 33.4437 160.338C33.1546 160.405 32.6041 160.414 32.702 160.615C32.7076 160.627 33.4373 160.773 33.4516 160.785C33.5089 160.84 33.5013 160.881 33.4794 160.921C33.4434 160.986 33.3686 161.048 33.4876 161.145C33.502 161.157 34.1994 161.264 34.246 161.287C34.3467 161.335 34.3028 161.365 34.0754 161.361C33.9657 161.359 33.3715 161.242 33.2733 161.243C33.043 161.247 32.9865 161.284 33.0922 161.342C33.1387 161.367 33.8562 161.446 33.8612 161.469C33.9102 161.629 34.016 161.782 33.0691 161.853C33.0041 161.857 31.545 161.715 31.8217 161.772C32.2262 161.816 32.7023 161.865 33.1348 161.91C33.2443 162.053 33.1497 162.177 33.0217 162.307C32.9073 162.423 32.7663 162.542 32.722 162.672C32.7182 162.684 33.4949 162.707 33.4915 162.729C33.4731 162.856 33.6826 162.987 32.9062 163.096C32.8302 163.107 31.4648 163.052 31.6699 163.102C31.7073 163.111 31.8874 163.181 32.1834 163.206C32.2281 163.21 32.866 163.218 32.884 163.238C32.9774 163.357 32.8291 163.474 32.4376 163.589C32.3732 163.607 31.6943 163.576 31.6426 163.59C31.2805 163.687 31.7957 163.803 31.1786 163.898C30.7631 163.963 29.5891 163.934 28.4332 163.969C28.2702 163.975 28.2442 164.019 27.5718 164.021C25.8809 164.027 24.0294 164.001 22.2271 164.009C21.8389 164.011 22.257 164.082 21.3189 164.04C21.2561 164.037 20.9448 163.984 20.6266 163.97C20.4066 163.961 19.7227 163.976 19.4411 163.956C19.1597 163.937 19.733 163.917 19.4022 163.885C19.0673 163.851 18.2893 163.862 18.1975 163.797ZM33.9324 154.646C33.6522 154.055 34.5479 156.274 34.3674 155.729C34.3576 155.7 33.9462 154.675 33.9324 154.646ZM37.6873 153.404C37.7119 152.348 37.6091 153.897 37.5858 154.712C37.5502 155.525 37.6737 153.724 37.6873 153.404ZM38.1217 152.679C38.208 151.85 37.6786 155.202 37.8024 154.527C37.8091 154.489 38.1157 152.727 38.1217 152.679ZM28.105 163.788C28.0732 163.789 28.042 163.821 28.0735 163.822C28.8333 163.844 28.8952 163.781 28.105 163.788ZM38.7075 151.958C38.825 151.513 38.6277 152.008 38.4866 152.561C38.3666 153.004 38.5534 152.508 38.7075 151.958ZM31.0082 153.201C30.9902 153.171 30.9539 153.155 31.0541 153.33C31.3766 153.893 31.3113 153.719 31.0082 153.201ZM39.3939 152.227C39.4054 152.082 40.6421 149.561 40.6966 149.959C40.699 150.027 40.166 150.683 40.0794 150.925C39.8964 151.352 40.8888 149.897 40.4539 150.74C40.3624 150.886 39.382 152.235 39.3916 152.23C39.3924 152.229 39.3931 152.228 39.3939 152.227ZM32.8334 151.99C32.8207 151.961 32.778 151.946 32.7891 151.976C33.059 152.686 33.143 152.718 32.8334 151.99ZM28.9335 152.851C28.8889 152.801 28.778 152.811 28.816 152.861C29.5884 153.834 29.7938 153.833 28.9335 152.851ZM34.5639 149.561C34.4102 148.812 34.4432 148.71 34.7114 149.632C34.6587 149.593 34.6163 149.596 34.5639 149.561Z" fill="white"/>
<path d="M142.5 68.5V131C142.5 143.426 132.426 153.5 120 153.5H30C17.5736 153.5 7.5 143.426 7.5 131V68.5H142.5Z" stroke="black" stroke-width="15"/>
<path d="M30 21.5H120C132.426 21.5 142.5 31.5736 142.5 44V66.5H7.5V44C7.5 31.5736 17.5736 21.5 30 21.5Z" fill="#51CBD9" stroke="black" stroke-width="15"/>
<path d="M52 36V8" stroke="black" stroke-width="15" stroke-linecap="round"/>
<path d="M98 36V8" stroke="black" stroke-width="15" stroke-linecap="round"/>
<path d="M89.1426 91.3613L71.4766 131H65.7344L83.3418 92.7383H60.2852V88.3438H89.1426V91.3613Z" fill="black"/>
</svg>
