<svg width="120" height="120" viewBox="0 0 120 120" fill="none" xmlns="http://www.w3.org/2000/svg">
<rect x="120" y="42.3529" width="35.2941" height="120" rx="17.6471" transform="rotate(90 120 42.3529)" fill="#51CBD9"/>
<rect x="120" y="42.3529" width="35.2941" height="120" rx="17.6471" transform="rotate(90 120 42.3529)" fill="#51CBD9"/>
<circle cx="89.9999" cy="70.5882" r="1.76471" transform="rotate(90 89.9999 70.5882)" fill="white"/>
<circle cx="89.9999" cy="63.5294" r="1.76471" transform="rotate(90 89.9999 63.5294)" fill="white"/>
<circle cx="97.0588" cy="52.9412" r="1.76471" transform="rotate(90 97.0588 52.9412)" fill="white"/>
<circle cx="104.118" cy="70.5882" r="1.76471" transform="rotate(90 104.118 70.5882)" fill="white"/>
<circle cx="89.9999" cy="49.4118" r="1.76471" transform="rotate(90 89.9999 49.4118)" fill="white"/>
<circle cx="89.9999" cy="56.4706" r="1.76471" transform="rotate(90 89.9999 56.4706)" fill="white"/>
<circle cx="97.0588" cy="60" r="1.76471" transform="rotate(90 97.0588 60)" fill="white"/>
<circle cx="97.0588" cy="67.0588" r="1.76471" transform="rotate(90 97.0588 67.0588)" fill="white"/>
<circle cx="104.118" cy="49.4118" r="1.76471" transform="rotate(90 104.118 49.4118)" fill="white"/>
<circle cx="104.118" cy="56.4706" r="1.76471" transform="rotate(90 104.118 56.4706)" fill="white"/>
<circle cx="104.118" cy="63.5294" r="1.76471" transform="rotate(90 104.118 63.5294)" fill="white"/>
<circle cx="15.8824" cy="70.5882" r="1.76471" transform="rotate(90 15.8824 70.5882)" fill="white"/>
<circle cx="15.8824" cy="63.5294" r="1.76471" transform="rotate(90 15.8824 63.5294)" fill="white"/>
<circle cx="22.9411" cy="52.9412" r="1.76471" transform="rotate(90 22.9411 52.9412)" fill="white"/>
<circle cx="29.9999" cy="70.5882" r="1.76471" transform="rotate(90 29.9999 70.5882)" fill="white"/>
<circle cx="15.8824" cy="49.4118" r="1.76471" transform="rotate(90 15.8824 49.4118)" fill="white"/>
<circle cx="15.8824" cy="56.4706" r="1.76471" transform="rotate(90 15.8824 56.4706)" fill="white"/>
<circle cx="22.9411" cy="60" r="1.76471" transform="rotate(90 22.9411 60)" fill="white"/>
<circle cx="22.9411" cy="67.0588" r="1.76471" transform="rotate(90 22.9411 67.0588)" fill="white"/>
<circle cx="29.9999" cy="49.4118" r="1.76471" transform="rotate(90 29.9999 49.4118)" fill="white"/>
<circle cx="29.9999" cy="56.4706" r="1.76471" transform="rotate(90 29.9999 56.4706)" fill="white"/>
<circle cx="29.9999" cy="63.5294" r="1.76471" transform="rotate(90 29.9999 63.5294)" fill="white"/>
<rect x="77.6471" y="120" width="35.2941" height="120" rx="17.6471" transform="rotate(180 77.6471 120)" fill="#51CBD9"/>
<rect x="77.6471" y="120" width="35.2941" height="120" rx="17.6471" transform="rotate(180 77.6471 120)" fill="#51CBD9"/>
<circle cx="49.4118" cy="90" r="1.76471" transform="rotate(180 49.4118 90)" fill="white"/>
<circle cx="56.4706" cy="90" r="1.76471" transform="rotate(180 56.4706 90)" fill="white"/>
<circle cx="67.0588" cy="97.0588" r="1.76471" transform="rotate(180 67.0588 97.0588)" fill="white"/>
<circle cx="49.4118" cy="104.118" r="1.76471" transform="rotate(180 49.4118 104.118)" fill="white"/>
<circle cx="70.5882" cy="90" r="1.76471" transform="rotate(180 70.5882 90)" fill="white"/>
<circle cx="63.5295" cy="90" r="1.76471" transform="rotate(180 63.5295 90)" fill="white"/>
<circle cx="59.9999" cy="97.0588" r="1.76471" transform="rotate(180 59.9999 97.0588)" fill="white"/>
<circle cx="52.9411" cy="97.0588" r="1.76471" transform="rotate(180 52.9411 97.0588)" fill="white"/>
<rect x="70.5883" y="77.6471" width="20.8235" height="35.2941" rx="10.4118" transform="rotate(180 70.5883 77.6471)" fill="#B3E9F0"/>
<circle cx="70.5882" cy="104.118" r="1.76471" transform="rotate(180 70.5882 104.118)" fill="white"/>
<circle cx="63.5295" cy="104.118" r="1.76471" transform="rotate(180 63.5295 104.118)" fill="white"/>
<circle cx="56.4706" cy="104.118" r="1.76471" transform="rotate(180 56.4706 104.118)" fill="white"/>
<circle cx="49.4118" cy="15.8824" r="1.76471" transform="rotate(180 49.4118 15.8824)" fill="white"/>
<circle cx="56.4706" cy="15.8824" r="1.76471" transform="rotate(180 56.4706 15.8824)" fill="white"/>
<circle cx="67.0588" cy="22.9412" r="1.76471" transform="rotate(180 67.0588 22.9412)" fill="white"/>
<circle cx="49.4118" cy="30" r="1.76471" transform="rotate(180 49.4118 30)" fill="white"/>
<circle cx="70.5882" cy="15.8824" r="1.76471" transform="rotate(180 70.5882 15.8824)" fill="white"/>
<circle cx="63.5295" cy="15.8824" r="1.76471" transform="rotate(180 63.5295 15.8824)" fill="white"/>
<circle cx="59.9999" cy="22.9412" r="1.76471" transform="rotate(180 59.9999 22.9412)" fill="white"/>
<circle cx="52.9411" cy="22.9412" r="1.76471" transform="rotate(180 52.9411 22.9412)" fill="white"/>
<circle cx="70.5882" cy="30" r="1.76471" transform="rotate(180 70.5882 30)" fill="white"/>
<circle cx="63.5295" cy="30" r="1.76471" transform="rotate(180 63.5295 30)" fill="white"/>
<circle cx="56.4706" cy="30" r="1.76471" transform="rotate(180 56.4706 30)" fill="white"/>
</svg>
