<svg width="81" height="74" viewBox="0 0 81 74" fill="none" xmlns="http://www.w3.org/2000/svg">
<path d="M38.0527 9.33984C39.4143 8.06759 41.5338 8.0852 42.874 9.37988L67.4316 33.1045C68.1143 33.764 68.5 34.6729 68.5 35.6221V69C68.5 70.933 66.933 72.5 65 72.5H15C13.067 72.5 11.5 70.933 11.5 69V35.6709C11.5 34.7015 11.9021 33.7751 12.6104 33.1133L38.0527 9.33984Z" stroke="black" stroke-width="3"/>
<path d="M40.2426 0.707081L79.8406 40.3051L76.3051 43.8406L36.7071 4.24261L40.2426 0.707081Z" fill="black" stroke="black"/>
<path d="M43.8407 4.24264L4.24273 43.8406L0.707197 40.3051L40.3052 0.707107L43.8407 4.24264Z" fill="black" stroke="black"/>
<path d="M35 45.5H45C46.933 45.5 48.5 47.067 48.5 49V72.5H31.5V49C31.5 47.067 33.067 45.5 35 45.5Z" stroke="black" stroke-width="3"/>
</svg>
