<svg width="275" height="74" viewBox="0 0 275 74" fill="none" xmlns="http://www.w3.org/2000/svg">
<path d="M3.24392 43.1037C3.24392 38.7249 4.14117 35.0836 5.93568 32.1797C7.73019 29.2759 10.2149 27.1095 13.3898 25.6807C16.5647 24.2057 20.2458 23.4683 24.4329 23.4683C27.7459 23.4683 30.5527 23.9062 32.8533 24.7819V32.7328H32.1631C31.3349 32.318 30.3226 31.9723 29.1263 31.6958C27.976 31.4192 26.6646 31.2809 25.1922 31.2809C21.4191 31.2809 18.4513 32.295 16.2886 34.323C14.172 36.305 13.1137 39.2319 13.1137 43.1037C13.1137 46.9754 14.172 49.9253 16.2886 51.9534C18.4513 53.9354 21.4191 54.9264 25.1922 54.9264C26.6646 54.9264 27.976 54.7881 29.1263 54.5115C30.3226 54.235 31.3349 53.8893 32.1631 53.4745H32.8533V61.4254C30.5527 62.3474 27.7459 62.8082 24.4329 62.8082C20.1077 62.8082 16.3576 62.0936 13.1827 60.6649C10.0538 59.1897 7.61518 57.0005 5.86666 54.0967C4.11817 51.1468 3.24392 47.4825 3.24392 43.1037ZM66.1607 62.9465C63.7218 62.9465 61.3983 62.6931 59.1897 62.1859C57.0269 61.7252 55.0944 60.8723 53.3921 59.6278C51.6896 58.3374 50.3322 56.6089 49.3199 54.4424C48.3536 52.23 47.8705 49.4413 47.8705 46.0766V36.0515C47.8705 35.1296 47.8475 33.9543 47.8015 32.5254C47.8015 31.0966 47.7555 29.6907 47.6634 28.308C47.5714 26.8791 47.4104 25.7498 47.1803 24.9202L47.3874 24.3671H57.5332V45.6618C57.5332 48.1508 57.9015 50.0867 58.6375 51.4694C59.4199 52.8522 60.5243 53.7971 61.9505 54.3041C63.3767 54.8113 65.0564 55.0646 66.9889 55.0646C68.3693 55.0646 69.7039 54.9264 70.9921 54.6498C72.3266 54.3733 73.5226 54.0967 74.5811 53.8201L73.0626 56.0326C72.8324 55.3412 72.6485 54.4883 72.5105 53.4745C72.4183 52.4143 72.3724 51.1929 72.3724 49.8101V36.0515C72.3724 35.1296 72.3493 33.9543 72.3034 32.5254C72.3034 31.0966 72.2576 29.6907 72.1654 28.308C72.0732 26.8791 71.9351 25.7498 71.7513 24.9202L71.8893 24.3671H82.0352V48.0125C82.0352 48.9344 82.0584 50.1327 82.1042 51.6077C82.15 53.0366 82.2191 54.4656 82.3113 55.8943C82.4035 57.2771 82.5415 58.3833 82.7254 59.213L82.5183 59.7661C81.1379 60.3651 79.5047 60.8955 77.6179 61.3563C75.7312 61.817 73.776 62.1859 71.7513 62.4625C69.7265 62.785 67.863 62.9465 66.1607 62.9465ZM105.519 18.4211C103.955 18.4211 102.643 17.9602 101.585 17.0384C100.573 16.0704 100.067 14.7337 100.067 13.0283C100.067 11.369 100.573 10.0784 101.585 9.15656C102.643 8.18861 103.955 7.70464 105.519 7.70464C107.13 7.70464 108.441 8.18861 109.453 9.15656C110.465 10.0784 110.972 11.369 110.972 13.0283C110.972 14.7337 110.465 16.0704 109.453 17.0384C108.441 17.9602 107.13 18.4211 105.519 18.4211ZM100.688 62.1168V36.0515C100.688 35.1296 100.665 33.9543 100.619 32.5254C100.573 31.0966 100.504 29.6907 100.412 28.308C100.366 26.8791 100.228 25.7498 99.9975 24.9202L100.205 24.3671H110.35V62.1168H100.688ZM146.768 62.9465C142.489 62.9465 138.808 62.2318 135.725 60.8032C132.642 59.328 130.272 57.1388 128.616 54.235C126.959 51.2851 126.131 47.5746 126.131 43.1037C126.131 39.0475 126.959 35.5675 128.616 32.6637C130.272 29.7138 132.596 27.4552 135.587 25.8881C138.578 24.321 142.098 23.5143 146.147 23.4683C147.803 23.4683 149.253 23.6065 150.495 23.8831C151.783 24.1136 152.727 24.3671 153.325 24.6436L153.187 32.0415C152.589 31.811 151.83 31.5806 150.909 31.3501C149.989 31.1196 148.839 31.0044 147.458 31.0044C143.639 31.0044 140.763 32.0645 138.831 34.1848C136.944 36.305 136.001 39.278 136.001 43.1037C136.001 45.7309 136.392 47.9664 137.174 49.8101C138.003 51.6538 139.245 53.0596 140.901 54.0276C142.558 54.9496 144.674 55.4103 147.251 55.4103C148.632 55.4103 149.828 55.2953 150.84 55.0646C151.899 54.834 152.819 54.5574 153.601 54.235L152.704 56.7931C152.335 56.0094 152.106 55.0646 152.014 53.9584C151.921 52.8522 151.875 51.6538 151.875 50.3632V22.0164C151.875 20.9101 151.852 19.5734 151.806 18.0063C151.761 16.4392 151.692 14.9181 151.599 13.4432C151.507 11.9682 151.369 10.862 151.185 10.1245L151.392 9.57139H161.538V48.4965C161.538 49.4183 161.538 50.6167 161.538 52.0917C161.584 53.5205 161.63 54.9264 161.676 56.3091C161.768 57.6919 161.907 58.7981 162.09 59.6278L161.883 60.1809C159.951 60.9647 157.719 61.6096 155.188 62.1168C152.704 62.6699 149.897 62.9465 146.768 62.9465ZM194.505 62.9465C188.754 62.9465 184.405 62.0017 181.461 60.1118C178.562 58.2218 177.112 55.157 177.112 50.9163C177.112 48.1968 177.779 45.9614 179.114 44.2099C180.494 42.4583 182.404 41.1678 184.843 40.3381C187.327 39.4624 190.18 39.0245 193.401 39.0245C195.379 39.0245 197.105 39.1858 198.578 39.5084C200.05 39.785 201.384 40.0846 202.581 40.4072V46.6297C201.66 46.3071 200.487 46.0305 199.061 45.8001C197.634 45.5235 196.254 45.3852 194.919 45.3852C191.928 45.3852 189.697 45.8001 188.225 46.6297C186.798 47.4594 186.085 48.8652 186.085 50.8472C186.085 52.737 186.798 54.0967 188.225 54.9264C189.651 55.756 191.699 56.1709 194.367 56.1709C195.978 56.1709 197.519 56.0326 198.992 55.756C200.51 55.4336 201.845 54.9496 202.995 54.3041L201.614 57.0005C201.431 56.4474 201.269 55.8943 201.131 55.3412C200.993 54.7881 200.878 54.2118 200.786 53.6127C200.74 53.0135 200.694 52.3452 200.648 51.6077C200.648 50.8241 200.648 49.8792 200.648 48.773V39.301C200.648 36.9503 200.28 35.1758 199.544 33.9773C198.808 32.7789 197.726 31.9954 196.3 31.6266C194.874 31.2118 193.102 31.0044 190.985 31.0044C189.053 31.0044 187.189 31.2118 185.395 31.6266C183.6 31.9954 182.151 32.4332 181.047 32.9403H180.356V25.2659C182.013 24.6667 183.876 24.2288 185.947 23.9522C188.017 23.6296 190.088 23.4683 192.159 23.4683C194.736 23.4683 197.105 23.6987 199.268 24.1597C201.476 24.6206 203.386 25.4272 204.996 26.5795C206.607 27.7318 207.849 29.3681 208.723 31.4884C209.644 33.5625 210.104 36.2589 210.104 39.5776V48.2891C210.104 49.257 210.104 50.4784 210.104 51.9534C210.15 53.3823 210.219 54.7881 210.311 56.1709C210.403 57.5536 210.541 58.6599 210.725 59.4895L210.518 60.0426C208.954 60.6417 207.251 61.1721 205.41 61.6328C203.616 62.0476 201.776 62.3701 199.889 62.6008C198.002 62.8314 196.208 62.9465 194.505 62.9465Z" fill="#676E9C"/>
<path d="M267.07 44.1331C271.45 44.1331 275 40.5768 275 36.1898C275 31.8028 271.45 28.2465 267.07 28.2465L229.008 28.2465C224.629 28.2465 221.078 31.8028 221.078 36.1898C221.078 40.5768 224.629 44.1331 229.008 44.1331H267.07Z" fill="#51CBD9"/>
<path d="M267.07 44.1331C271.45 44.1331 275 40.5768 275 36.1898C275 31.8028 271.45 28.2465 267.07 28.2465L229.008 28.2465C224.629 28.2465 221.078 31.8028 221.078 36.1898C221.078 40.5768 224.629 44.1331 229.008 44.1331H267.07Z" fill="#51CBD9"/>
<path d="M260.727 40.9558C260.727 41.3945 261.082 41.7501 261.52 41.7501C261.958 41.7501 262.313 41.3945 262.313 40.9558C262.313 40.5171 261.958 40.1614 261.52 40.1614C261.082 40.1614 260.727 40.5171 260.727 40.9558Z" fill="white"/>
<path d="M260.727 37.7785C260.727 38.2172 261.082 38.5728 261.52 38.5728C261.958 38.5728 262.313 38.2172 262.313 37.7785C262.313 37.3398 261.958 36.9841 261.52 36.9841C261.082 36.9841 260.727 37.3398 260.727 37.7785Z" fill="white"/>
<path d="M263.898 33.0125C263.898 33.4512 264.253 33.8068 264.691 33.8068C265.129 33.8068 265.484 33.4512 265.484 33.0125C265.484 32.5738 265.129 32.2181 264.691 32.2181C264.253 32.2181 263.898 32.5738 263.898 33.0125Z" fill="white"/>
<path d="M267.071 40.9558C267.071 41.3945 267.426 41.7501 267.863 41.7501C268.301 41.7501 268.656 41.3945 268.656 40.9558C268.656 40.5171 268.301 40.1614 267.863 40.1614C267.426 40.1614 267.071 40.5171 267.071 40.9558Z" fill="white"/>
<path d="M260.727 31.4238C260.727 31.8625 261.082 32.2181 261.52 32.2181C261.958 32.2181 262.313 31.8625 262.313 31.4238C262.313 30.9851 261.958 30.6295 261.52 30.6295C261.082 30.6295 260.727 30.9851 260.727 31.4238Z" fill="white"/>
<path d="M260.727 34.6011C260.727 35.0398 261.082 35.3954 261.52 35.3954C261.958 35.3954 262.313 35.0398 262.313 34.6011C262.313 34.1624 261.958 33.8068 261.52 33.8068C261.082 33.8068 260.727 34.1624 260.727 34.6011Z" fill="white"/>
<path d="M263.898 36.1898C263.898 36.6285 264.253 36.9841 264.691 36.9841C265.129 36.9841 265.484 36.6285 265.484 36.1898C265.484 35.7511 265.129 35.3954 264.691 35.3954C264.253 35.3954 263.898 35.7511 263.898 36.1898Z" fill="white"/>
<path d="M263.898 39.3671C263.898 39.8058 264.253 40.1614 264.691 40.1614C265.129 40.1614 265.484 39.8058 265.484 39.3671C265.484 38.9284 265.129 38.5727 264.691 38.5727C264.253 38.5727 263.898 38.9284 263.898 39.3671Z" fill="white"/>
<path d="M267.071 31.4238C267.071 31.8625 267.426 32.2181 267.863 32.2181C268.301 32.2181 268.656 31.8625 268.656 31.4238C268.656 30.9851 268.301 30.6295 267.863 30.6295C267.426 30.6295 267.071 30.9851 267.071 31.4238Z" fill="white"/>
<path d="M267.071 34.6011C267.071 35.0398 267.426 35.3954 267.863 35.3954C268.301 35.3954 268.656 35.0398 268.656 34.6011C268.656 34.1624 268.301 33.8068 267.863 33.8068C267.426 33.8068 267.071 34.1624 267.071 34.6011Z" fill="white"/>
<path d="M267.071 37.7785C267.071 38.2172 267.426 38.5728 267.863 38.5728C268.301 38.5728 268.656 38.2172 268.656 37.7785C268.656 37.3398 268.301 36.9841 267.863 36.9841C267.426 36.9841 267.071 37.3398 267.071 37.7785Z" fill="white"/>
<path d="M227.422 40.9558C227.422 41.3944 227.777 41.7501 228.215 41.7501C228.653 41.7501 229.008 41.3944 229.008 40.9558C229.008 40.5171 228.653 40.1614 228.215 40.1614C227.777 40.1614 227.422 40.5171 227.422 40.9558Z" fill="white"/>
<path d="M227.422 37.7785C227.422 38.2171 227.777 38.5728 228.215 38.5728C228.653 38.5728 229.008 38.2171 229.008 37.7785C229.008 37.3398 228.653 36.9841 228.215 36.9841C227.777 36.9841 227.422 37.3398 227.422 37.7785Z" fill="white"/>
<path d="M230.594 33.0125C230.594 33.4512 230.949 33.8068 231.387 33.8068C231.825 33.8068 232.18 33.4512 232.18 33.0125C232.18 32.5738 231.825 32.2181 231.387 32.2181C230.949 32.2181 230.594 32.5738 230.594 33.0125Z" fill="white"/>
<path d="M233.766 40.9558C233.766 41.3945 234.121 41.7501 234.559 41.7501C234.997 41.7501 235.352 41.3945 235.352 40.9558C235.352 40.5171 234.997 40.1614 234.559 40.1614C234.121 40.1614 233.766 40.5171 233.766 40.9558Z" fill="white"/>
<path d="M227.422 31.4238C227.422 31.8625 227.777 32.2181 228.215 32.2181C228.653 32.2181 229.008 31.8625 229.008 31.4238C229.008 30.9851 228.653 30.6295 228.215 30.6295C227.777 30.6295 227.422 30.9851 227.422 31.4238Z" fill="white"/>
<path d="M227.422 34.6011C227.422 35.0398 227.777 35.3954 228.215 35.3954C228.653 35.3954 229.008 35.0398 229.008 34.6011C229.008 34.1624 228.653 33.8068 228.215 33.8068C227.777 33.8068 227.422 34.1624 227.422 34.6011Z" fill="white"/>
<path d="M230.594 36.1898C230.594 36.6285 230.949 36.9841 231.387 36.9841C231.825 36.9841 232.18 36.6285 232.18 36.1898C232.18 35.7511 231.825 35.3954 231.387 35.3954C230.949 35.3954 230.594 35.7511 230.594 36.1898Z" fill="white"/>
<path d="M230.594 39.3671C230.594 39.8058 230.949 40.1614 231.387 40.1614C231.825 40.1614 232.18 39.8058 232.18 39.3671C232.18 38.9284 231.825 38.5727 231.387 38.5727C230.949 38.5727 230.594 38.9284 230.594 39.3671Z" fill="white"/>
<path d="M233.766 31.4238C233.766 31.8625 234.121 32.2181 234.559 32.2181C234.997 32.2181 235.352 31.8625 235.352 31.4238C235.352 30.9851 234.997 30.6295 234.559 30.6295C234.121 30.6295 233.766 30.9851 233.766 31.4238Z" fill="white"/>
<path d="M233.766 34.6011C233.766 35.0398 234.121 35.3954 234.559 35.3954C234.997 35.3954 235.352 35.0398 235.352 34.6011C235.352 34.1624 234.997 33.8068 234.559 33.8068C234.121 33.8068 233.766 34.1624 233.766 34.6011Z" fill="white"/>
<path d="M233.766 37.7785C233.766 38.2172 234.121 38.5728 234.559 38.5728C234.997 38.5728 235.352 38.2172 235.352 37.7785C235.352 37.3398 234.997 36.9841 234.559 36.9841C234.121 36.9841 233.766 37.3398 233.766 37.7785Z" fill="white"/>
<path d="M240.11 55.2537C240.11 59.6407 243.66 63.1971 248.039 63.1971C252.419 63.1971 255.969 59.6407 255.969 55.2537V17.1258C255.969 12.7388 252.419 9.18248 248.039 9.18248C243.66 9.18248 240.11 12.7388 240.11 17.1258V55.2537Z" fill="#51CBD9"/>
<path d="M240.11 55.2537C240.11 59.6407 243.66 63.1971 248.039 63.1971C252.419 63.1971 255.969 59.6407 255.969 55.2537V17.1258C255.969 12.7388 252.419 9.18248 248.039 9.18248C243.66 9.18248 240.11 12.7388 240.11 17.1258V55.2537Z" fill="#51CBD9"/>
<path d="M243.282 48.8991C242.844 48.8991 242.489 49.2547 242.489 49.6934C242.489 50.1321 242.844 50.4878 243.282 50.4878C243.72 50.4878 244.075 50.1321 244.075 49.6934C244.075 49.2547 243.72 48.8991 243.282 48.8991Z" fill="white"/>
<path d="M246.453 48.8991C246.015 48.8991 245.66 49.2547 245.66 49.6934C245.66 50.1321 246.015 50.4878 246.453 50.4878C246.891 50.4878 247.246 50.1321 247.246 49.6934C247.246 49.2547 246.891 48.8991 246.453 48.8991Z" fill="white"/>
<path d="M251.211 52.0764C250.773 52.0764 250.418 52.432 250.418 52.8707C250.418 53.3094 250.773 53.6651 251.211 53.6651C251.649 53.6651 252.004 53.3094 252.004 52.8707C252.004 52.432 251.649 52.0764 251.211 52.0764Z" fill="white"/>
<path d="M243.282 55.2539C242.844 55.2539 242.489 55.6095 242.489 56.0482C242.489 56.4869 242.844 56.8426 243.282 56.8426C243.72 56.8426 244.075 56.4869 244.075 56.0482C244.075 55.6095 243.72 55.2539 243.282 55.2539Z" fill="white"/>
<path d="M252.797 48.8991C252.359 48.8991 252.004 49.2547 252.004 49.6934C252.004 50.1321 252.359 50.4878 252.797 50.4878C253.235 50.4878 253.59 50.1321 253.59 49.6934C253.59 49.2547 253.235 48.8991 252.797 48.8991Z" fill="white"/>
<path d="M249.625 48.8991C249.187 48.8991 248.832 49.2547 248.832 49.6934C248.832 50.1321 249.187 50.4878 249.625 50.4878C250.063 50.4878 250.418 50.1321 250.418 49.6934C250.418 49.2547 250.063 48.8991 249.625 48.8991Z" fill="white"/>
<path d="M248.039 52.0764C247.601 52.0764 247.246 52.432 247.246 52.8707C247.246 53.3094 247.601 53.6651 248.039 53.6651C248.477 53.6651 248.832 53.3094 248.832 52.8707C248.832 52.432 248.477 52.0764 248.039 52.0764Z" fill="white"/>
<path d="M244.868 52.0764C244.43 52.0764 244.075 52.432 244.075 52.8707C244.075 53.3094 244.43 53.6651 244.868 53.6651C245.305 53.6651 245.661 53.3094 245.661 52.8707C245.661 52.432 245.305 52.0764 244.868 52.0764Z" fill="white"/>
<path d="M243.44 39.4466C243.44 42.0349 245.535 44.1331 248.119 44.1331C250.703 44.1331 252.797 42.0349 252.797 39.4466V32.933C252.797 30.3447 250.703 28.2465 248.119 28.2465C245.535 28.2465 243.44 30.3447 243.44 32.933V39.4466Z" fill="#B3E9F0"/>
<path d="M252.797 55.2539C252.359 55.2539 252.004 55.6095 252.004 56.0482C252.004 56.4869 252.359 56.8426 252.797 56.8426C253.235 56.8426 253.59 56.4869 253.59 56.0482C253.59 55.6095 253.235 55.2539 252.797 55.2539Z" fill="white"/>
<path d="M249.625 55.2539C249.187 55.2539 248.832 55.6095 248.832 56.0482C248.832 56.4869 249.187 56.8426 249.625 56.8426C250.063 56.8426 250.418 56.4869 250.418 56.0482C250.418 55.6095 250.063 55.2539 249.625 55.2539Z" fill="white"/>
<path d="M246.453 55.2539C246.015 55.2539 245.66 55.6095 245.66 56.0482C245.66 56.4869 246.015 56.8426 246.453 56.8426C246.891 56.8426 247.246 56.4869 247.246 56.0482C247.246 55.6095 246.891 55.2539 246.453 55.2539Z" fill="white"/>
<path d="M243.282 15.5371C242.844 15.5371 242.489 15.8928 242.489 16.3315C242.489 16.7702 242.844 17.1258 243.282 17.1258C243.72 17.1258 244.075 16.7702 244.075 16.3315C244.075 15.8928 243.72 15.5371 243.282 15.5371Z" fill="white"/>
<path d="M246.453 15.5371C246.015 15.5371 245.66 15.8928 245.66 16.3315C245.66 16.7702 246.015 17.1258 246.453 17.1258C246.891 17.1258 247.246 16.7702 247.246 16.3315C247.246 15.8928 246.891 15.5371 246.453 15.5371Z" fill="white"/>
<path d="M251.211 18.7144C250.773 18.7144 250.418 19.0701 250.418 19.5088C250.418 19.9475 250.773 20.3031 251.211 20.3031C251.649 20.3031 252.004 19.9475 252.004 19.5088C252.004 19.0701 251.649 18.7144 251.211 18.7144Z" fill="white"/>
<path d="M243.282 21.8918C242.844 21.8918 242.489 22.2474 242.489 22.6861C242.489 23.1248 242.844 23.4805 243.282 23.4805C243.72 23.4805 244.075 23.1248 244.075 22.6861C244.075 22.2474 243.72 21.8918 243.282 21.8918Z" fill="white"/>
<path d="M252.797 15.5371C252.359 15.5371 252.004 15.8928 252.004 16.3315C252.004 16.7702 252.359 17.1258 252.797 17.1258C253.235 17.1258 253.59 16.7702 253.59 16.3315C253.59 15.8928 253.235 15.5371 252.797 15.5371Z" fill="white"/>
<path d="M249.625 15.5371C249.187 15.5371 248.832 15.8928 248.832 16.3315C248.832 16.7702 249.187 17.1258 249.625 17.1258C250.063 17.1258 250.418 16.7702 250.418 16.3315C250.418 15.8928 250.063 15.5371 249.625 15.5371Z" fill="white"/>
<path d="M248.039 18.7144C247.601 18.7144 247.246 19.0701 247.246 19.5088C247.246 19.9475 247.601 20.3031 248.039 20.3031C248.477 20.3031 248.832 19.9475 248.832 19.5088C248.832 19.0701 248.477 18.7144 248.039 18.7144Z" fill="white"/>
<path d="M244.868 18.7144C244.43 18.7144 244.075 19.0701 244.075 19.5088C244.075 19.9475 244.43 20.3031 244.868 20.3031C245.305 20.3031 245.661 19.9475 245.661 19.5088C245.661 19.0701 245.305 18.7144 244.868 18.7144Z" fill="white"/>
<path d="M252.797 21.8918C252.359 21.8918 252.004 22.2474 252.004 22.6861C252.004 23.1248 252.359 23.4805 252.797 23.4805C253.235 23.4805 253.59 23.1248 253.59 22.6861C253.59 22.2474 253.235 21.8918 252.797 21.8918Z" fill="white"/>
<path d="M249.625 21.8918C249.187 21.8918 248.832 22.2474 248.832 22.6861C248.832 23.1248 249.187 23.4805 249.625 23.4805C250.063 23.4805 250.418 23.1248 250.418 22.6861C250.418 22.2474 250.063 21.8918 249.625 21.8918Z" fill="white"/>
<path d="M246.453 21.8918C246.015 21.8918 245.66 22.2474 245.66 22.6861C245.66 23.1248 246.015 23.4805 246.453 23.4805C246.891 23.4805 247.246 23.1248 247.246 22.6861C247.246 22.2474 246.891 21.8918 246.453 21.8918Z" fill="white"/>
</svg>
