<svg width="510" height="137" viewBox="0 0 510 137" fill="none" xmlns="http://www.w3.org/2000/svg">
<path d="M6.016 79.8C6.016 71.6933 7.68 64.952 11.008 59.576C14.336 54.2 18.944 50.1893 24.832 47.544C30.72 44.8133 37.5467 43.448 45.312 43.448C51.456 43.448 56.6613 44.2587 60.928 45.88V60.6H59.648C58.112 59.832 56.2347 59.192 54.016 58.68C51.8827 58.168 49.4507 57.912 46.72 57.912C39.7227 57.912 34.2187 59.7893 30.208 63.544C26.2827 67.2133 24.32 72.632 24.32 79.8C24.32 86.968 26.2827 92.4293 30.208 96.184C34.2187 99.8533 39.7227 101.688 46.72 101.688C49.4507 101.688 51.8827 101.432 54.016 100.92C56.2347 100.408 58.112 99.768 59.648 99H60.928V113.72C56.6613 115.427 51.456 116.28 45.312 116.28C37.2907 116.28 30.336 114.957 24.448 112.312C18.6453 109.581 14.1227 105.528 10.88 100.152C7.63733 94.6907 6.016 87.9067 6.016 79.8ZM122.698 116.536C118.175 116.536 113.866 116.067 109.77 115.128C105.759 114.275 102.175 112.696 99.018 110.392C95.8607 108.003 93.3433 104.803 91.466 100.792C89.674 96.696 88.778 91.5333 88.778 85.304V66.744C88.778 65.0373 88.7353 62.8613 88.65 60.216C88.65 57.5707 88.5647 54.968 88.394 52.408C88.2233 49.7627 87.9247 47.672 87.498 46.136L87.882 45.112H106.698V84.536C106.698 89.144 107.381 92.728 108.746 95.288C110.197 97.848 112.245 99.5973 114.89 100.536C117.535 101.475 120.65 101.944 124.234 101.944C126.794 101.944 129.269 101.688 131.658 101.176C134.133 100.664 136.351 100.152 138.314 99.64L135.498 103.736C135.071 102.456 134.73 100.877 134.474 99C134.303 97.0373 134.218 94.776 134.218 92.216V66.744C134.218 65.0373 134.175 62.8613 134.09 60.216C134.09 57.5707 134.005 54.968 133.834 52.408C133.663 49.7627 133.407 47.672 133.066 46.136L133.322 45.112H152.138V88.888C152.138 90.5947 152.181 92.8133 152.266 95.544C152.351 98.1893 152.479 100.835 152.65 103.48C152.821 106.04 153.077 108.088 153.418 109.624L153.034 110.648C150.474 111.757 147.445 112.739 143.946 113.592C140.447 114.445 136.821 115.128 133.066 115.64C129.311 116.237 125.855 116.536 122.698 116.536ZM195.69 34.104C192.789 34.104 190.357 33.2507 188.394 31.544C186.517 29.752 185.578 27.2773 185.578 24.12C185.578 21.048 186.517 18.6587 188.394 16.952C190.357 15.16 192.789 14.264 195.69 14.264C198.677 14.264 201.109 15.16 202.986 16.952C204.863 18.6587 205.802 21.048 205.802 24.12C205.802 27.2773 204.863 29.752 202.986 31.544C201.109 33.2507 198.677 34.104 195.69 34.104ZM186.73 115V66.744C186.73 65.0373 186.687 62.8613 186.602 60.216C186.517 57.5707 186.389 54.968 186.218 52.408C186.133 49.7627 185.877 47.672 185.45 46.136L185.834 45.112H204.65V115H186.73ZM272.188 116.536C264.252 116.536 257.425 115.213 251.708 112.568C245.991 109.837 241.596 105.784 238.524 100.408C235.452 94.9467 233.916 88.0773 233.916 79.8C233.916 72.2907 235.452 65.848 238.524 60.472C241.596 55.0107 245.905 50.8293 251.452 47.928C256.999 45.0267 263.527 43.5333 271.036 43.448C274.108 43.448 276.796 43.704 279.1 44.216C281.489 44.6427 283.239 45.112 284.348 45.624L284.092 59.32C282.983 58.8933 281.575 58.4667 279.868 58.04C278.161 57.6133 276.028 57.4 273.468 57.4C266.385 57.4 261.052 59.3627 257.468 63.288C253.969 67.2133 252.22 72.7173 252.22 79.8C252.22 84.664 252.945 88.8027 254.396 92.216C255.932 95.6293 258.236 98.232 261.308 100.024C264.38 101.731 268.305 102.584 273.084 102.584C275.644 102.584 277.863 102.371 279.74 101.944C281.703 101.517 283.409 101.005 284.86 100.408L283.196 105.144C282.513 103.693 282.087 101.944 281.916 99.896C281.745 97.848 281.66 95.6293 281.66 93.24V40.76C281.66 38.712 281.617 36.2373 281.532 33.336C281.447 30.4347 281.319 27.6187 281.148 24.888C280.977 22.1573 280.721 20.1093 280.38 18.744L280.764 17.72H299.58V89.784C299.58 91.4907 299.58 93.7093 299.58 96.44C299.665 99.0853 299.751 101.688 299.836 104.248C300.007 106.808 300.263 108.856 300.604 110.392L300.22 111.416C296.636 112.867 292.497 114.061 287.804 115C283.196 116.024 277.991 116.536 272.188 116.536ZM360.719 116.536C350.052 116.536 341.988 114.787 336.527 111.288C331.151 107.789 328.463 102.115 328.463 94.264C328.463 89.2293 329.7 85.0907 332.175 81.848C334.735 78.6053 338.276 76.216 342.799 74.68C347.407 73.0587 352.698 72.248 358.671 72.248C362.34 72.248 365.54 72.5467 368.271 73.144C371.002 73.656 373.476 74.2107 375.695 74.808V86.328C373.988 85.7307 371.812 85.2187 369.167 84.792C366.522 84.28 363.962 84.024 361.487 84.024C355.94 84.024 351.802 84.792 349.071 86.328C346.426 87.864 345.103 90.4667 345.103 94.136C345.103 97.6347 346.426 100.152 349.071 101.688C351.716 103.224 355.514 103.992 360.463 103.992C363.45 103.992 366.308 103.736 369.039 103.224C371.855 102.627 374.33 101.731 376.463 100.536L373.903 105.528C373.562 104.504 373.263 103.48 373.007 102.456C372.751 101.432 372.538 100.365 372.367 99.256C372.282 98.1467 372.196 96.9093 372.111 95.544C372.111 94.0933 372.111 92.344 372.111 90.296V72.76C372.111 68.408 371.428 65.1227 370.063 62.904C368.698 60.6853 366.692 59.2347 364.047 58.552C361.402 57.784 358.116 57.4 354.191 57.4C350.607 57.4 347.151 57.784 343.823 58.552C340.495 59.2347 337.807 60.0453 335.759 60.984H334.479V46.776C337.551 45.6667 341.007 44.856 344.847 44.344C348.687 43.7467 352.527 43.448 356.367 43.448C361.146 43.448 365.54 43.8747 369.551 44.728C373.647 45.5813 377.188 47.0747 380.175 49.208C383.162 51.3413 385.466 54.3707 387.087 58.296C388.794 62.136 389.647 67.128 389.647 73.272V89.4C389.647 91.192 389.647 93.4533 389.647 96.184C389.732 98.8293 389.86 101.432 390.031 103.992C390.202 106.552 390.458 108.6 390.799 110.136L390.415 111.16C387.514 112.269 384.356 113.251 380.943 114.104C377.615 114.872 374.202 115.469 370.703 115.896C367.204 116.323 363.876 116.536 360.719 116.536Z" fill="#3DE9A7"/>
<rect x="510" y="52.2941" width="29.4118" height="100" rx="14.7059" transform="rotate(90 510 52.2941)" fill="#51CBD9"/>
<rect x="510" y="52.2941" width="29.4118" height="100" rx="14.7059" transform="rotate(90 510 52.2941)" fill="#51CBD9"/>
<circle cx="485" cy="75.8235" r="1.47059" transform="rotate(90 485 75.8235)" fill="white"/>
<circle cx="485" cy="69.9412" r="1.47059" transform="rotate(90 485 69.9412)" fill="white"/>
<circle cx="490.882" cy="61.1177" r="1.47059" transform="rotate(90 490.882 61.1177)" fill="white"/>
<circle cx="496.765" cy="75.8235" r="1.47059" transform="rotate(90 496.765 75.8235)" fill="white"/>
<circle cx="485" cy="58.1765" r="1.47059" transform="rotate(90 485 58.1765)" fill="white"/>
<circle cx="485" cy="64.0588" r="1.47059" transform="rotate(90 485 64.0588)" fill="white"/>
<circle cx="490.882" cy="67" r="1.47059" transform="rotate(90 490.882 67)" fill="white"/>
<circle cx="490.882" cy="72.8823" r="1.47059" transform="rotate(90 490.882 72.8823)" fill="white"/>
<circle cx="496.765" cy="58.1765" r="1.47059" transform="rotate(90 496.765 58.1765)" fill="white"/>
<circle cx="496.765" cy="64.0588" r="1.47059" transform="rotate(90 496.765 64.0588)" fill="white"/>
<circle cx="496.765" cy="69.9412" r="1.47059" transform="rotate(90 496.765 69.9412)" fill="white"/>
<ellipse cx="423.235" cy="75.8235" rx="1.47059" ry="1.47059" transform="rotate(90 423.235 75.8235)" fill="white"/>
<ellipse cx="423.235" cy="69.9412" rx="1.47059" ry="1.47059" transform="rotate(90 423.235 69.9412)" fill="white"/>
<circle cx="429.118" cy="61.1177" r="1.47059" transform="rotate(90 429.118 61.1177)" fill="white"/>
<circle cx="435" cy="75.8235" r="1.47059" transform="rotate(90 435 75.8235)" fill="white"/>
<ellipse cx="423.235" cy="58.1765" rx="1.47059" ry="1.47059" transform="rotate(90 423.235 58.1765)" fill="white"/>
<ellipse cx="423.235" cy="64.0588" rx="1.47059" ry="1.47059" transform="rotate(90 423.235 64.0588)" fill="white"/>
<circle cx="429.118" cy="67" r="1.47059" transform="rotate(90 429.118 67)" fill="white"/>
<circle cx="429.118" cy="72.8823" r="1.47059" transform="rotate(90 429.118 72.8823)" fill="white"/>
<circle cx="435" cy="58.1765" r="1.47059" transform="rotate(90 435 58.1765)" fill="white"/>
<circle cx="435" cy="64.0588" r="1.47059" transform="rotate(90 435 64.0588)" fill="white"/>
<circle cx="435" cy="69.9412" r="1.47059" transform="rotate(90 435 69.9412)" fill="white"/>
<rect x="474.706" y="117" width="29.4118" height="100" rx="14.7059" transform="rotate(180 474.706 117)" fill="#51CBD9"/>
<rect x="474.706" y="117" width="29.4118" height="100" rx="14.7059" transform="rotate(180 474.706 117)" fill="#51CBD9"/>
<circle cx="451.177" cy="92" r="1.47059" transform="rotate(180 451.177 92)" fill="white"/>
<circle cx="457.059" cy="92" r="1.47059" transform="rotate(180 457.059 92)" fill="white"/>
<circle cx="465.882" cy="97.8823" r="1.47059" transform="rotate(180 465.882 97.8823)" fill="white"/>
<circle cx="451.177" cy="103.765" r="1.47059" transform="rotate(180 451.177 103.765)" fill="white"/>
<circle cx="468.823" cy="92" r="1.47059" transform="rotate(180 468.823 92)" fill="white"/>
<circle cx="462.941" cy="92" r="1.47059" transform="rotate(180 462.941 92)" fill="white"/>
<circle cx="460" cy="97.8823" r="1.47059" transform="rotate(180 460 97.8823)" fill="white"/>
<ellipse cx="454.118" cy="97.8823" rx="1.47059" ry="1.47059" transform="rotate(180 454.118 97.8823)" fill="white"/>
<rect x="468.824" y="81.7059" width="17.3529" height="29.4118" rx="8.67647" transform="rotate(180 468.824 81.7059)" fill="#B3E9F0"/>
<circle cx="468.823" cy="103.765" r="1.47059" transform="rotate(180 468.823 103.765)" fill="white"/>
<circle cx="462.941" cy="103.765" r="1.47059" transform="rotate(180 462.941 103.765)" fill="white"/>
<circle cx="457.059" cy="103.765" r="1.47059" transform="rotate(180 457.059 103.765)" fill="white"/>
<ellipse cx="451.177" cy="30.2353" rx="1.47059" ry="1.47059" transform="rotate(180 451.177 30.2353)" fill="white"/>
<ellipse cx="457.059" cy="30.2353" rx="1.47059" ry="1.47059" transform="rotate(180 457.059 30.2353)" fill="white"/>
<ellipse cx="465.882" cy="36.1176" rx="1.47059" ry="1.47059" transform="rotate(180 465.882 36.1176)" fill="white"/>
<ellipse cx="451.177" cy="42" rx="1.47059" ry="1.47059" transform="rotate(180 451.177 42)" fill="white"/>
<ellipse cx="468.823" cy="30.2353" rx="1.47059" ry="1.47059" transform="rotate(180 468.823 30.2353)" fill="white"/>
<ellipse cx="462.941" cy="30.2353" rx="1.47059" ry="1.47059" transform="rotate(180 462.941 30.2353)" fill="white"/>
<ellipse cx="460" cy="36.1176" rx="1.47059" ry="1.47059" transform="rotate(180 460 36.1176)" fill="white"/>
<ellipse cx="454.118" cy="36.1176" rx="1.47059" ry="1.47059" transform="rotate(180 454.118 36.1176)" fill="white"/>
<ellipse cx="468.823" cy="42" rx="1.47059" ry="1.47059" transform="rotate(180 468.823 42)" fill="white"/>
<ellipse cx="462.941" cy="42" rx="1.47059" ry="1.47059" transform="rotate(180 462.941 42)" fill="white"/>
<ellipse cx="457.059" cy="42" rx="1.47059" ry="1.47059" transform="rotate(180 457.059 42)" fill="white"/>
</svg>
